<svg xmlns="http://www.w3.org/2000/svg" xmlns:xlink="http://www.w3.org/1999/xlink" width="2000.118" height="1551.67" viewBox="0 0 2000.118 1551.67"><defs><linearGradient id="a" x1="0.86" y1="0.262" x2="-0.078" y2="0.168" gradientUnits="objectBoundingBox"><stop offset="0" stop-color="#7fc1ee"/><stop offset="1" stop-color="#fff"/></linearGradient><linearGradient id="b" x1="0.86" y1="0.262" x2="-0.078" y2="0.168" gradientUnits="objectBoundingBox"><stop offset="0" stop-color="#3ba2e8"/><stop offset="1" stop-color="#fff"/></linearGradient><linearGradient id="c" x1="0.991" y1="0.278" x2="0.137" y2="0.262" gradientUnits="objectBoundingBox"><stop offset="0" stop-color="#3ba2e8"/><stop offset="0.469" stop-color="#97cef3"/><stop offset="0.473" stop-color="#98cef3"/><stop offset="1" stop-color="#fff"/></linearGradient></defs><g transform="translate(665.819 40.508)"><g transform="translate(394.043 434.779)"><path d="M150,0H410.141a150,150,0,0,1,150,150v85.607l-145.22,232.4c0,29.575-57.616,31.107-64.922,45.085-12.89,24.664,14.355,47.321-38.913,47.321L328.1,609.4H150A150,150,0,0,1,0,459.4V150A150,150,0,0,1,150,0Z" transform="translate(30.395 296.829) rotate(-32)" opacity="0.19" fill="url(#a)"/><path d="M150,0H439.527a150,150,0,0,1,150,150v92.641L420.518,513.113l-106.3,170.121c0,2.543-3.33,2.857-4.5,4.207-1.013,1.189-.009,3.151-.928,4.453-1.973,2.815-2.378,5.98-5.082,8.133-4.194,3.345-6.972,11.324-9.088,14.567-7.186,11.031-8.812,18.5-37.092,59.36L228.554,820.3,150,827.125a149.963,149.963,0,0,1-150-150V150A150,150,0,0,1,150,0Z" transform="translate(2 374.941) rotate(-32)" fill="url(#b)"/></g><rect width="808.12" height="655.538" rx="150" transform="translate(-665.819 530.919) rotate(-45)" opacity="0.11" fill="url(#c)"/></g></svg>